<svg xmlns="http://www.w3.org/2000/svg" width="512" height="512" viewBox="0 0 512 512" version="1.1"><path d="M 425.827 1.702 C 424.963 2.691, 423.692 4.625, 423.002 6 C 420.516 10.949, 390.336 57.909, 388.939 59 C 388.587 59.275, 387.723 60.625, 387.018 62 C 385.752 64.471, 377.316 77.566, 375.744 79.500 C 375.297 80.050, 371.347 86.350, 366.967 93.500 C 362.586 100.650, 358.511 107.206, 357.910 108.070 C 355.572 111.431, 343.319 130.293, 340 135.640 C 338.075 138.741, 336.035 141.778, 335.466 142.389 C 334.898 143, 333.137 145.750, 331.553 148.500 C 329.969 151.250, 328.409 153.725, 328.087 154 C 327.239 154.723, 317.257 169.866, 309.960 181.500 C 301.415 195.123, 293.442 207.452, 289.110 213.739 C 287.124 216.621, 283.700 221.844, 281.500 225.347 C 268.856 245.480, 268.067 246.361, 265.698 242.979 C 264.919 241.867, 262.751 239.280, 260.880 237.229 C 259.010 235.178, 255.926 231.475, 254.028 229 C 251.009 225.063, 235.640 207.081, 229.250 200.010 C 228.013 198.641, 227 197.172, 227 196.745 C 227 195.069, 218.167 187, 216.332 187 C 212.007 187, 211.987 187.040, 198.614 221.171 C 197.176 224.839, 196 228.343, 196 228.956 C 196 229.569, 195.362 231.067, 194.583 232.285 C 193.059 234.667, 186 253.141, 186 254.748 C 186 255.281, 184.425 259.127, 182.500 263.293 C 180.575 267.459, 177.026 276.410, 174.614 283.184 C 170.249 295.436, 168.171 300.873, 160.926 319 C 158.837 324.225, 156.018 331.425, 154.660 335 C 153.302 338.575, 149.195 349.150, 145.534 358.500 C 135.979 382.899, 130.883 396.296, 122.517 419 C 120.187 425.325, 116.375 435, 114.048 440.500 C 111.720 446, 108.568 454.325, 107.042 459 C 104.351 467.249, 95.986 488.312, 90.566 500.486 C 87.537 507.290, 87.804 510.662, 91.443 511.575 C 95.370 512.561, 97.282 511.244, 101.423 504.699 C 106.337 496.932, 112.185 488.564, 118 480.975 C 120.475 477.745, 124.525 472.141, 127 468.521 C 129.475 464.901, 136.409 455.090, 142.409 446.719 C 148.409 438.349, 155.356 428.575, 157.845 425 C 160.335 421.425, 164.426 415.710, 166.936 412.300 C 169.446 408.891, 173.075 403.812, 175 401.015 C 176.925 398.218, 179.533 394.708, 180.795 393.215 C 182.058 391.722, 184.862 387.800, 187.028 384.500 C 192.267 376.519, 192.701 375.892, 198.500 367.952 C 201.250 364.186, 205.525 358.134, 208 354.503 C 210.475 350.872, 213.175 347.066, 214 346.044 C 214.825 345.022, 216.175 343.199, 217 341.992 C 217.825 340.785, 221.300 335.906, 224.722 331.149 C 228.144 326.392, 231.875 321.150, 233.013 319.500 C 247.136 299.019, 246.542 299.368, 253.106 307.707 C 256.046 311.443, 258.700 314.725, 259.002 315 C 259.304 315.275, 261.115 317.524, 263.026 319.997 C 266.809 324.894, 266.618 324.661, 276.971 336.988 C 287.799 349.881, 289.978 350.165, 294.480 339.271 C 296.019 335.547, 298.084 330.700, 299.069 328.500 C 304.165 317.122, 306 312.651, 306 311.614 C 306 310.985, 306.962 308.677, 308.138 306.485 C 309.314 304.293, 311.089 300.141, 312.081 297.258 C 313.074 294.375, 315.080 289.650, 316.538 286.758 C 319.248 281.385, 322.681 273.194, 335.510 241.500 C 344.376 219.596, 347.637 211.901, 352.460 201.500 C 354.501 197.100, 358.850 187.200, 362.124 179.500 C 365.399 171.800, 369.139 163.025, 370.435 160 C 371.732 156.975, 373.123 153.375, 373.527 152 C 374.811 147.625, 382.828 128.313, 387.334 118.742 C 389.726 113.659, 392.944 106.125, 394.485 102 C 398.045 92.471, 405.477 74.866, 408.433 68.961 C 409.683 66.464, 411.272 62.639, 411.965 60.461 C 413.877 54.447, 425.520 26.847, 431.183 14.906 C 437.302 2.003, 433.579 -7.176, 425.827 1.702" stroke="none" fill="#dfdfdf" fill-rule="evenodd"/></svg>