<svg xmlns="http://www.w3.org/2000/svg" width="512" height="512" viewBox="0 0 512 512" version="1.1"><path d="M 215 13.663 C 206.135 16.456, 198.636 21.197, 190.382 29.228 C 184.264 35.181, 184.264 35.181, 174.882 31.943 C 123.707 14.280, 102.351 67.328, 143.658 109.500 C 180.584 147.200, 213.205 150.903, 234.001 119.757 C 235.375 117.698, 236.838 116.011, 237.250 116.007 C 237.662 116.003, 238 115.558, 238 115.018 C 238 114.477, 239.700 111.215, 241.777 107.768 C 253.904 87.646, 259.803 63.417, 256.609 46.849 C 252.454 25.293, 231.396 8.498, 215 13.663 M 322.500 61.376 C 319.750 62.065, 316.375 63.259, 315 64.029 C 313.625 64.799, 312.275 65.453, 312 65.482 C 310.292 65.663, 299.075 74.295, 297 77.026 C 295.625 78.836, 294.050 80.808, 293.500 81.408 C 289.961 85.272, 284.112 99.776, 282.575 108.500 C 282.284 110.150, 281.682 113.525, 281.236 116 C 279.702 124.520, 280.793 146.359, 283.408 159.500 C 284.283 163.900, 285.259 168.850, 285.575 170.500 C 285.892 172.150, 286.511 174.400, 286.951 175.500 C 287.391 176.600, 289.212 181.550, 290.999 186.500 C 299.981 211.388, 311.965 225.752, 325.580 227.948 C 332.447 229.056, 353.135 228.653, 355.210 227.370 C 355.663 227.091, 357.263 226.641, 358.766 226.371 C 363.279 225.562, 379.249 220.830, 383 219.192 C 386.547 217.642, 393.259 214.761, 396 213.612 C 396.825 213.266, 399.075 212.043, 401 210.893 C 402.925 209.744, 406.300 207.850, 408.500 206.683 C 410.700 205.517, 414.300 203.161, 416.500 201.448 C 418.700 199.735, 421.270 197.913, 422.211 197.399 C 443.757 185.628, 457.101 151.315, 449.047 128.392 C 445.100 117.157, 432.457 104, 425.607 104 C 424.788 104, 423.876 103.609, 423.581 103.131 C 423.104 102.359, 420.447 101.723, 412 100.358 C 408.244 99.751, 395.975 99.761, 388.826 100.377 C 382.738 100.901, 378 97.883, 378 93.482 C 378 92.014, 368.376 78.591, 364.519 74.678 C 358.898 68.976, 347 60.664, 347 62.439 C 347 62.682, 345.877 62.299, 344.505 61.587 C 341.254 59.901, 328.863 59.782, 322.500 61.376 M 264.004 236.721 C 262.081 236.964, 260.056 237.526, 259.504 237.969 C 258.952 238.412, 256.590 239.089, 254.255 239.474 C 251.921 239.859, 249.788 240.534, 249.516 240.974 C 249.244 241.413, 247.442 242.070, 245.511 242.432 C 243.580 242.794, 242 243.502, 242 244.005 C 242 244.508, 240.200 245.459, 238 246.118 C 235.800 246.777, 234 247.627, 234 248.006 C 234 248.386, 232.200 249.508, 230 250.500 C 227.800 251.492, 226 252.631, 226 253.031 C 226 253.430, 224.632 254.324, 222.960 255.016 C 221.288 255.709, 219.376 257.009, 218.710 257.905 C 218.045 258.801, 216.150 260.367, 214.500 261.384 C 212.850 262.401, 210.375 264.284, 209 265.570 C 198.376 275.502, 198.467 275.463, 192.650 272.617 C 189.708 271.178, 186.999 270, 186.630 270 C 186.262 270, 184.178 268.875, 182 267.500 C 179.822 266.125, 177.462 265, 176.755 265 C 176.048 265, 173.790 264.099, 171.735 262.998 C 169.681 261.897, 168 261.231, 168 261.518 C 168 261.806, 166.200 261.122, 164 260 C 161.800 258.878, 160 258.174, 160 258.435 C 160 258.697, 158.152 258.259, 155.894 257.462 C 153.635 256.666, 151.394 256.256, 150.914 256.553 C 150.434 256.850, 149.155 256.618, 148.072 256.039 C 143.845 253.776, 123.163 253.087, 116 254.969 C 106.413 257.489, 95.506 261.933, 94 263.933 C 93.725 264.298, 92.100 265.574, 90.388 266.768 C 86.039 269.803, 82.045 273.743, 77.988 279 C 76.078 281.475, 74.171 283.651, 73.751 283.835 C 73.331 284.020, 73.206 284.524, 73.473 284.956 C 73.740 285.388, 73.068 286.769, 71.979 288.024 C 70.891 289.279, 70 290.912, 70 291.653 C 70 292.394, 69.475 293, 68.833 293 C 68.192 293, 67.949 293.282, 68.293 293.627 C 68.638 293.972, 68.167 295.659, 67.247 297.377 C 58.904 312.947, 57.126 341.968, 63.409 360.014 C 64.268 362.481, 64.977 365.512, 64.985 366.750 C 64.993 367.988, 65.450 369, 66 369 C 66.550 369, 67 369.580, 67 370.289 C 67 370.997, 67.851 373.246, 68.891 375.286 C 69.931 377.326, 71.092 380.229, 71.470 381.738 C 71.849 383.246, 72.460 384.709, 72.829 384.990 C 73.198 385.270, 74.400 387.262, 75.500 389.417 C 80.036 398.300, 81.269 400.524, 81.921 401 C 82.297 401.275, 83.683 403.300, 85 405.500 C 86.317 407.700, 87.693 409.725, 88.058 410 C 88.422 410.275, 89.470 411.962, 90.386 413.750 C 91.302 415.538, 92.393 417, 92.810 417 C 93.227 417, 94.304 418.244, 95.202 419.766 C 96.101 421.287, 97.885 423.738, 99.168 425.213 C 100.451 426.688, 103.300 429.991, 105.500 432.552 C 107.700 435.114, 110.289 437.950, 111.252 438.855 C 112.216 439.760, 114.016 441.601, 115.252 442.946 C 116.489 444.291, 118.625 446.460, 120 447.767 C 121.375 449.073, 123.484 451.122, 124.687 452.321 C 125.891 453.519, 127.321 454.869, 127.867 455.321 C 128.412 455.772, 130.744 457.909, 133.047 460.071 C 135.351 462.232, 137.745 464.008, 138.368 464.017 C 138.990 464.026, 141.267 465.826, 143.426 468.017 C 145.585 470.208, 147.863 472, 148.489 472 C 149.114 472, 150.915 473.345, 152.490 474.990 C 154.065 476.634, 155.572 477.761, 155.839 477.494 C 156.358 476.976, 163.010 481.692, 164.235 483.447 C 164.639 484.026, 164.976 484.130, 164.985 483.677 C 164.993 483.225, 166.186 483.788, 167.635 484.927 C 169.084 486.067, 170.821 487, 171.495 487 C 172.169 487, 174.459 488.180, 176.583 489.621 C 178.708 491.063, 180.908 492.333, 181.473 492.444 C 182.038 492.556, 184.075 493.331, 186 494.168 C 187.925 495.004, 189.725 495.692, 190 495.697 C 190.275 495.701, 192.412 496.680, 194.750 497.872 C 197.088 499.065, 199 499.795, 199 499.495 C 199 499.194, 200.238 499.573, 201.750 500.337 C 203.262 501.100, 206.525 502.034, 209 502.412 C 211.475 502.790, 215.075 503.363, 217 503.686 C 222.692 504.641, 228.847 504.194, 231.769 502.613 C 233.271 501.800, 237.574 499.738, 241.332 498.030 C 245.090 496.322, 249.112 494.042, 250.271 492.962 C 251.429 491.883, 252.680 491, 253.051 491 C 254.208 491, 266.286 481.354, 272.458 475.500 C 274.198 473.850, 276.719 471.537, 278.061 470.361 C 279.402 469.184, 282.525 465.879, 285 463.016 C 287.475 460.153, 290.400 456.775, 291.500 455.508 C 292.600 454.242, 294.512 452.031, 295.750 450.595 C 296.988 449.159, 298 447.564, 298 447.049 C 298 446.534, 298.789 445.525, 299.754 444.807 C 300.719 444.088, 302.809 441.499, 304.399 439.053 C 305.988 436.607, 307.674 434.132, 308.144 433.553 C 309.562 431.806, 316 421.830, 316 421.380 C 316 421.149, 317.202 419.057, 318.670 416.730 C 320.139 414.404, 321.230 412.362, 321.095 412.193 C 320.960 412.024, 322.009 410.366, 323.425 408.509 C 324.841 406.653, 326 404.631, 326 404.017 C 326 403.403, 326.769 401.461, 327.708 399.700 C 328.648 397.940, 329.451 396.275, 329.494 396 C 329.536 395.725, 330.102 394.547, 330.750 393.381 C 332.110 390.939, 336.167 380.309, 336.043 379.513 C 335.997 379.219, 336.657 377.629, 337.511 375.980 C 339.180 372.751, 343.031 361, 342.420 361 C 342.216 361, 342.543 359.762, 343.145 358.250 C 343.748 356.738, 344.388 354.600, 344.568 353.500 C 344.748 352.400, 345.413 348.800, 346.046 345.500 C 348.601 332.176, 348.957 322.601, 347.385 309.500 C 346.199 299.618, 343.461 288.324, 341.930 287 C 341.612 286.725, 340.764 284.363, 340.046 281.750 C 339.328 279.137, 338.419 277, 338.028 277 C 337.636 277, 336.467 275.425, 335.430 273.500 C 334.393 271.575, 333.280 270, 332.957 270 C 332.633 270, 331.357 268.200, 330.120 266 C 328.884 263.800, 327.256 262, 326.503 262 C 325.751 262, 324.849 261.100, 324.500 260 C 324.151 258.900, 323.476 258, 323 258 C 322.524 258, 321.849 257.100, 321.500 256 C 321.151 254.900, 320.383 254, 319.794 254 C 319.206 254, 316.771 252.200, 314.384 250 C 311.997 247.800, 309.555 246, 308.956 246 C 308.357 246, 306.434 244.950, 304.683 243.667 C 301.979 241.686, 293.576 238.489, 292.761 239.132 C 292.617 239.245, 291.401 238.750, 290.059 238.031 C 287.593 236.712, 270.761 235.865, 264.004 236.721" stroke="none" fill="#dfdfdf" fill-rule="evenodd"/></svg>