<svg xmlns="http://www.w3.org/2000/svg" width="512" height="512" viewBox="0 0 512 512" version="1.1"><path d="M 242.872 8.653 C 242.029 9.668, 241.364 13.524, 241.147 18.653 L 240.795 27 236.647 27.006 C 234.366 27.009, 228 27.689, 222.500 28.518 C 217 29.346, 207.775 31.159, 202 32.547 C 196.225 33.936, 186.775 36.662, 181 38.606 C 175.225 40.551, 163.750 45.432, 155.500 49.454 C 147.250 53.476, 135.775 59.889, 130 63.706 C 124.225 67.523, 116.800 72.827, 113.500 75.492 C 110.200 78.158, 103.961 83.506, 99.636 87.378 C 95.310 91.250, 87.498 99.386, 82.276 105.459 C 77.053 111.532, 69.180 121.881, 64.781 128.458 C 60.381 135.036, 53.487 147.186, 49.462 155.458 C 45.436 163.731, 40.551 175.225, 38.606 181 C 36.662 186.775, 33.936 196.225, 32.547 202 C 31.159 207.775, 29.346 217, 28.518 222.500 C 27.689 228, 27.009 234.368, 27.006 236.651 L 27 240.801 18.152 241.151 C 12.588 241.370, 8.691 242.009, 7.652 242.872 C 6.288 244.006, 6 246.291, 6 256 C 6 265.709, 6.288 267.994, 7.652 269.128 C 8.691 269.991, 12.588 270.630, 18.152 270.849 L 27 271.199 27.006 275.349 C 27.009 277.632, 27.689 284, 28.518 289.500 C 29.346 295, 31.159 304.225, 32.547 310 C 33.936 315.775, 36.662 325.225, 38.606 331 C 40.551 336.775, 45.436 348.269, 49.462 356.542 C 53.487 364.814, 60.381 376.964, 64.781 383.542 C 69.180 390.119, 77.053 400.468, 82.276 406.541 C 87.498 412.614, 95.310 420.750, 99.636 424.622 C 103.961 428.494, 110.200 433.842, 113.500 436.508 C 116.800 439.173, 124.225 444.477, 130 448.294 C 135.775 452.111, 147.250 458.524, 155.500 462.546 C 163.750 466.568, 175.225 471.449, 181 473.394 C 186.775 475.338, 196.225 478.064, 202 479.453 C 207.775 480.841, 217 482.654, 222.500 483.482 C 228 484.311, 234.368 484.991, 236.651 484.994 L 240.801 485 241.151 493.848 C 241.370 499.412, 242.009 503.309, 242.872 504.348 C 244.006 505.712, 246.291 506, 256 506 C 265.709 506, 267.994 505.712, 269.128 504.348 C 269.991 503.309, 270.630 499.412, 270.849 493.848 L 271.199 485 275.349 484.994 C 277.632 484.991, 284 484.311, 289.500 483.482 C 295 482.654, 304.225 480.841, 310 479.453 C 315.775 478.064, 325.225 475.338, 331 473.394 C 336.775 471.449, 348.250 466.568, 356.500 462.546 C 364.750 458.524, 376.225 452.111, 382 448.294 C 387.775 444.477, 395.200 439.173, 398.500 436.508 C 401.800 433.842, 408.039 428.494, 412.364 424.622 C 416.690 420.750, 424.502 412.614, 429.724 406.541 C 434.947 400.468, 442.820 390.119, 447.219 383.542 C 451.619 376.964, 458.513 364.814, 462.538 356.542 C 466.564 348.269, 471.449 336.775, 473.394 331 C 475.338 325.225, 478.064 315.775, 479.453 310 C 480.841 304.225, 482.654 295, 483.482 289.500 C 484.311 284, 484.991 277.632, 484.994 275.349 L 485 271.199 493.848 270.849 C 499.412 270.630, 503.309 269.991, 504.348 269.128 C 505.712 267.994, 506 265.709, 506 256 C 506 246.291, 505.712 244.006, 504.348 242.872 C 503.309 242.009, 499.412 241.370, 493.848 241.151 L 485 240.801 484.994 236.651 C 484.991 234.368, 484.311 228, 483.482 222.500 C 482.654 217, 480.841 207.775, 479.453 202 C 478.064 196.225, 475.338 186.775, 473.394 181 C 471.449 175.225, 466.564 163.731, 462.538 155.458 C 458.513 147.186, 451.619 135.036, 447.219 128.458 C 442.820 121.881, 434.947 111.532, 429.724 105.459 C 424.502 99.386, 416.690 91.250, 412.364 87.378 C 408.039 83.506, 401.800 78.158, 398.500 75.492 C 395.200 72.827, 387.775 67.523, 382 63.706 C 376.225 59.889, 364.750 53.476, 356.500 49.454 C 348.250 45.432, 336.775 40.551, 331 38.606 C 325.225 36.662, 315.775 33.936, 310 32.547 C 304.225 31.159, 295 29.346, 289.500 28.518 C 284 27.689, 277.634 27.009, 275.353 27.006 L 271.205 27 270.853 18.653 C 270.636 13.524, 269.971 9.668, 269.128 8.653 C 267.994 7.287, 265.711 7, 256 7 C 246.289 7, 244.006 7.287, 242.872 8.653 M 225.500 78.612 C 221.100 79.400, 213.262 81.195, 208.082 82.600 C 202.902 84.005, 195.252 86.505, 191.082 88.157 C 186.912 89.808, 178.325 93.839, 172 97.114 C 165.675 100.389, 156.226 106.091, 151.003 109.784 C 145.779 113.478, 135.879 122.126, 129.003 129.003 C 122.126 135.879, 113.460 145.779, 109.745 151.003 C 106.030 156.226, 99.698 167.034, 95.674 175.021 C 91.650 183.007, 86.924 194.032, 85.172 199.521 C 83.420 205.009, 81.112 213.550, 80.043 218.500 C 78.974 223.450, 77.790 230.537, 77.412 234.250 L 76.724 241 138.612 241.015 C 186.500 241.026, 201.066 241.316, 203 242.294 C 205.465 243.541, 205.500 243.734, 205.500 256 C 205.500 268.266, 205.465 268.459, 203 269.706 C 201.066 270.684, 186.500 270.974, 138.612 270.985 L 76.724 271 77.412 277.750 C 77.790 281.462, 78.974 288.550, 80.043 293.500 C 81.112 298.450, 83.420 306.991, 85.172 312.479 C 86.924 317.968, 91.650 328.993, 95.674 336.979 C 99.698 344.966, 106.030 355.774, 109.745 360.997 C 113.460 366.221, 122.126 376.121, 129.003 382.997 C 135.879 389.874, 145.779 398.540, 151.003 402.255 C 156.226 405.970, 167.034 412.302, 175.021 416.326 C 183.007 420.350, 194.032 425.076, 199.521 426.828 C 205.009 428.580, 213.550 430.888, 218.500 431.957 C 223.450 433.026, 230.537 434.210, 234.250 434.588 L 241 435.276 241.015 373.388 C 241.026 325.500, 241.316 310.934, 242.294 309 C 243.541 306.535, 243.734 306.500, 256 306.500 C 268.266 306.500, 268.459 306.535, 269.706 309 C 270.684 310.934, 270.974 325.500, 270.985 373.388 L 271 435.276 277.750 434.588 C 281.462 434.210, 288.550 433.026, 293.500 431.957 C 298.450 430.888, 306.991 428.580, 312.479 426.828 C 317.968 425.076, 328.993 420.350, 336.979 416.326 C 344.966 412.302, 355.774 405.970, 360.997 402.255 C 366.221 398.540, 376.121 389.874, 382.997 382.997 C 389.874 376.121, 398.540 366.221, 402.255 360.997 C 405.970 355.774, 412.302 344.966, 416.326 336.979 C 420.350 328.993, 425.076 317.968, 426.828 312.479 C 428.580 306.991, 430.888 298.450, 431.957 293.500 C 433.026 288.550, 434.210 281.462, 434.588 277.750 L 435.276 271 373.388 270.985 C 325.500 270.974, 310.934 270.684, 309 269.706 C 306.535 268.459, 306.500 268.266, 306.500 256 C 306.500 243.734, 306.535 243.541, 309 242.294 C 310.934 241.316, 325.500 241.026, 373.388 241.015 L 435.276 241 434.588 234.250 C 434.210 230.537, 433.026 223.450, 431.957 218.500 C 430.888 213.550, 428.580 205.009, 426.828 199.521 C 425.076 194.032, 420.350 183.007, 416.326 175.021 C 412.302 167.034, 405.970 156.226, 402.255 151.003 C 398.540 145.779, 389.874 135.879, 382.997 129.003 C 376.121 122.126, 366.221 113.460, 360.997 109.745 C 355.774 106.030, 344.966 99.698, 336.979 95.674 C 328.993 91.650, 317.968 86.924, 312.479 85.172 C 306.991 83.420, 298.450 81.112, 293.500 80.043 C 288.550 78.974, 281.462 77.790, 277.750 77.412 L 271 76.724 270.985 138.612 C 270.974 186.500, 270.684 201.066, 269.706 203 C 268.459 205.465, 268.266 205.500, 256 205.500 C 243.734 205.500, 243.541 205.465, 242.294 203 C 241.316 201.066, 241.026 186.527, 241.015 138.750 L 241 77 237.250 77.090 C 235.188 77.139, 229.900 77.824, 225.500 78.612 M 246.332 227.790 C 243.490 228.806, 239.505 230.903, 237.477 232.450 C 235.449 233.997, 232.525 237.256, 230.980 239.693 C 229.434 242.130, 227.625 246.396, 226.959 249.172 C 226.293 251.949, 226.008 256.421, 226.327 259.109 C 226.645 261.798, 227.762 265.934, 228.808 268.300 C 229.855 270.666, 232.157 274.248, 233.924 276.261 C 235.691 278.273, 239.694 281.175, 242.818 282.710 C 247.503 285.010, 249.816 285.500, 256 285.500 C 262.184 285.500, 264.497 285.010, 269.182 282.710 C 272.306 281.175, 276.309 278.273, 278.076 276.261 C 279.843 274.248, 282.227 270.554, 283.374 268.051 C 284.897 264.726, 285.459 261.480, 285.459 256 C 285.459 250.520, 284.897 247.274, 283.374 243.949 C 282.227 241.446, 279.843 237.752, 278.076 235.739 C 276.309 233.727, 272.421 230.886, 269.437 229.425 C 265.918 227.704, 261.812 226.625, 257.755 226.357 C 253.330 226.064, 249.988 226.483, 246.332 227.790" stroke="none" fill="#dfdfdf" fill-rule="evenodd"/></svg>