<svg xmlns="http://www.w3.org/2000/svg" width="512" height="512" viewBox="0 0 512 512" version="1.1"><path d="M 311.838 61.250 C 309.295 63.038, 301.308 68.932, 294.089 74.349 C 286.870 79.766, 280.522 85.024, 279.982 86.034 C 279.401 87.120, 279 100.342, 279 118.434 L 279 149 281.750 149.031 C 283.262 149.049, 295.300 149.945, 308.500 151.022 C 321.700 152.100, 342.287 153.859, 354.249 154.932 C 366.212 156.004, 376.519 157.203, 377.155 157.596 C 377.791 157.989, 388.591 153.186, 401.155 146.922 L 424 135.535 423.986 104.017 C 423.979 86.683, 423.725 71.578, 423.422 70.450 C 423.119 69.323, 422.013 67.865, 420.965 67.210 C 419.916 66.555, 411.282 65.345, 401.779 64.520 C 392.276 63.696, 370.474 61.891, 353.330 60.510 C 336.187 59.130, 320.879 58, 319.312 58 C 317.713 58, 314.434 59.426, 311.838 61.250 M 147 100.019 C 133.525 100.997, 114.625 102.312, 105 102.940 C 95.375 103.569, 85.055 104.352, 82.066 104.680 C 78.258 105.098, 75.936 105.973, 74.304 107.606 L 71.974 109.935 72.237 145.157 L 72.500 180.380 89.500 188.281 C 98.850 192.627, 110.376 198.165, 115.114 200.588 L 123.727 204.992 134.114 204.008 C 139.826 203.467, 155.300 202.343, 168.500 201.510 C 181.700 200.677, 198.125 199.557, 205 199.020 C 211.875 198.484, 218.963 198.035, 220.750 198.023 L 224 198 224 165.450 C 224 139.091, 223.726 132.372, 222.561 130.119 C 221.770 128.589, 214.458 121.733, 206.311 114.885 C 198.165 108.036, 190.202 101.435, 188.615 100.216 C 186.212 98.370, 184.542 98.020, 178.615 98.120 C 174.702 98.186, 160.475 99.041, 147 100.019 M 347.299 251.610 L 344.688 254.221 345.359 278.110 C 345.728 291.250, 345.777 302, 345.467 302 C 345.158 302, 338.963 301.340, 331.702 300.534 C 324.441 299.728, 308.825 298.151, 297 297.031 C 285.175 295.910, 273.813 294.730, 271.750 294.409 L 268 293.824 268 299.912 C 268 304.113, 268.387 306.002, 269.250 306.005 C 269.938 306.008, 285.952 307.808, 304.838 310.005 C 323.723 312.202, 340.555 314, 342.241 314 L 345.308 314 344.626 329.093 C 344.252 337.395, 343.077 349.882, 342.015 356.843 C 340.953 363.805, 339.122 372.875, 337.947 377 C 336.772 381.125, 334.307 387.221, 332.470 390.546 C 330.633 393.872, 328.088 397.099, 326.815 397.718 C 325.542 398.338, 323.208 399.127, 321.629 399.472 C 320.049 399.817, 301.712 399.781, 280.879 399.393 L 243 398.687 243 378.416 L 243 358.145 240.365 356.073 C 238.916 354.933, 236.490 354, 234.974 354 C 233.416 354, 230.106 355.522, 227.359 357.501 C 224.687 359.427, 221.508 361.433, 220.296 361.959 C 219.084 362.485, 213.684 366.183, 208.296 370.176 C 202.908 374.170, 196.581 378.801, 194.236 380.468 C 191.891 382.136, 185.003 387.100, 178.930 391.500 C 172.856 395.900, 165.280 401.525, 162.094 404 C 158.908 406.475, 154.321 409.729, 151.901 411.232 C 149.480 412.734, 145.250 415.562, 142.500 417.516 C 139.750 419.470, 136.262 422.410, 134.750 424.050 C 133.238 425.690, 132 428.179, 132 429.582 C 132 430.984, 132.463 432.997, 133.030 434.055 C 133.596 435.114, 135.448 436.697, 137.145 437.575 C 138.843 438.453, 143.309 441.495, 147.071 444.335 C 150.832 447.176, 158.543 452.910, 164.205 457.077 C 169.867 461.244, 179.675 468.476, 186 473.147 C 192.325 477.818, 201.466 484.534, 206.314 488.070 C 211.162 491.607, 217.012 495.942, 219.314 497.705 C 221.616 499.468, 225.490 502.280, 227.921 503.955 C 230.353 505.630, 233.411 507, 234.717 507 C 236.023 507, 238.195 505.895, 239.545 504.545 L 242 502.091 242 481.614 L 242 461.137 296.750 460.771 L 351.500 460.406 358.500 458.628 C 362.350 457.650, 369.143 455.146, 373.596 453.062 C 378.048 450.979, 384.123 447.291, 387.096 444.867 C 390.068 442.443, 394.750 438.219, 397.499 435.480 C 400.249 432.741, 403.485 429.150, 404.691 427.500 C 405.897 425.850, 409.190 420.787, 412.009 416.249 C 414.829 411.711, 419.149 402.936, 421.610 396.749 C 424.071 390.562, 426.470 383.925, 426.942 382 C 427.414 380.075, 428.925 374.225, 430.300 369 C 431.674 363.775, 433.526 355, 434.414 349.500 C 435.303 344, 436.729 333.425, 437.584 326 C 438.439 318.575, 439.394 299.379, 439.707 283.342 L 440.275 254.184 437.683 251.592 L 435.091 249 392.500 249 L 349.909 249 347.299 251.610 M 68 317.394 L 68 322.907 70.528 324.703 C 71.918 325.691, 81.404 332.976, 91.607 340.892 L 110.158 355.284 121.829 354.612 C 128.248 354.242, 138.675 353.499, 145 352.961 C 151.325 352.424, 161.900 351.535, 168.500 350.987 C 175.100 350.439, 189.950 349.311, 201.500 348.480 C 213.050 347.649, 224.862 346.718, 227.750 346.412 L 233 345.856 233 339.416 L 233 332.976 229.250 333.474 C 227.188 333.747, 219.875 334.414, 213 334.957 C 206.125 335.499, 193.975 336.419, 186 337.001 C 178.025 337.583, 166.775 338.504, 161 339.049 C 155.225 339.594, 143.975 340.484, 136 341.028 C 128.025 341.572, 119.426 342.288, 116.890 342.619 C 114.015 342.994, 111.381 342.752, 109.890 341.975 C 108.576 341.290, 105.250 338.972, 102.500 336.825 C 99.750 334.677, 92.742 329.451, 86.927 325.210 C 81.111 320.970, 75.036 316.571, 73.427 315.436 C 71.817 314.301, 69.938 313.037, 69.250 312.627 C 68.311 312.067, 68 313.254, 68 317.394" stroke="none" fill="#b2b2b2" fill-rule="evenodd"/><path d="M 401.634 146.616 C 387.321 153.820, 378.156 157.887, 377.134 157.489 C 376.235 157.140, 365.825 155.983, 354 154.918 C 342.175 153.853, 321.700 152.100, 308.500 151.022 C 295.300 149.945, 283.286 149.049, 281.802 149.031 L 279.105 149 278.802 143.750 L 278.500 138.500 268.602 148.169 L 258.704 157.839 259.440 223.150 C 259.858 260.141, 260.582 289.219, 261.111 290.208 C 261.625 291.168, 262.849 292.384, 263.832 292.910 C 264.814 293.436, 277.291 295.018, 291.559 296.426 C 305.826 297.835, 322 299.454, 327.500 300.025 C 333 300.596, 339.421 301.326, 341.768 301.648 L 346.037 302.233 345.362 278.227 L 344.688 254.221 347.299 251.610 L 349.909 249 392.500 249 L 435.091 249 437.545 251.455 L 440 253.909 440 271.026 L 440 288.143 441.571 286.571 C 442.436 285.707, 443.487 285, 443.909 285 C 444.330 285, 444.986 253.441, 445.366 214.869 L 446.058 144.737 444.592 142.500 C 443.786 141.270, 440.168 139.079, 436.553 137.632 C 432.937 136.184, 428.746 135.024, 427.239 135.054 C 425.733 135.083, 414.210 140.286, 401.634 146.616 M 60.596 180.313 L 58.282 182.627 57.542 241.213 C 57.135 273.435, 57.092 300.714, 57.446 301.831 C 57.801 302.949, 61.860 306.707, 66.467 310.182 C 71.073 313.657, 79.826 320.100, 85.917 324.500 C 92.008 328.900, 99.721 334.636, 103.058 337.246 C 106.394 339.857, 110.224 342.269, 111.568 342.607 C 112.913 342.944, 115.473 342.957, 117.257 342.635 C 119.040 342.313, 127.475 341.584, 136 341.015 C 144.525 340.446, 155.775 339.557, 161 339.039 C 166.225 338.521, 177.475 337.597, 186 336.986 C 194.525 336.374, 209.343 335.197, 218.930 334.370 C 229.322 333.473, 237.487 332.283, 239.150 331.422 C 240.685 330.629, 242.375 329.169, 242.905 328.178 C 243.485 327.095, 243.995 301.108, 244.184 262.983 L 244.500 199.589 240.500 196.942 C 238.300 195.487, 233.885 192.879, 230.688 191.148 C 227.492 189.417, 224.680 188, 224.438 188 C 224.197 188, 224 190.250, 224 193 L 224 198 220.750 198.023 C 218.963 198.035, 211.875 198.484, 205 199.020 C 198.125 199.557, 181.700 200.677, 168.500 201.510 C 155.300 202.343, 139.826 203.467, 134.114 204.008 L 123.727 204.992 115.114 200.596 C 110.376 198.178, 97.725 192.099, 87 187.088 C 76.275 182.076, 66.467 177.982, 65.205 177.988 C 63.942 177.995, 61.868 179.041, 60.596 180.313 M 441.566 303.526 C 439.937 304.759, 439.364 307.572, 437.923 321.401 C 436.983 330.428, 435.889 340.218, 435.493 343.157 L 434.773 348.500 437.891 344.607 C 439.606 342.466, 441.794 340.141, 442.754 339.440 L 444.500 338.165 444.813 320.083 C 444.985 310.137, 444.760 302.014, 444.313 302.032 C 443.866 302.049, 442.630 302.722, 441.566 303.526 M 262.455 308.455 L 260 310.909 260 328.500 L 260 346.091 262.250 348.322 C 264.148 350.205, 267.394 350.987, 283 353.323 C 293.175 354.846, 304.425 356.561, 308 357.134 C 311.575 357.708, 320.345 359.005, 327.489 360.016 C 334.633 361.028, 340.676 361.658, 340.918 361.416 C 341.160 361.174, 341.918 357.494, 342.603 353.238 C 343.288 348.982, 344.174 338.413, 344.572 329.750 L 345.295 314 342.235 314 C 340.552 314, 323.723 312.202, 304.838 310.005 C 285.952 307.808, 269.242 306.008, 267.705 306.005 C 266.065 306.002, 263.894 307.015, 262.455 308.455 M 58.455 323.455 L 56 325.909 56 347.161 L 56 368.413 82.250 394.744 C 96.688 409.226, 109.445 421.315, 110.599 421.608 C 111.754 421.901, 118.729 421.658, 126.099 421.067 L 139.500 419.993 143.500 416.951 C 145.700 415.278, 149.480 412.692, 151.901 411.205 C 154.321 409.717, 158.908 406.475, 162.094 404 C 165.280 401.525, 172.856 395.900, 178.930 391.500 C 185.003 387.100, 191.891 382.136, 194.236 380.468 C 196.581 378.801, 202.908 374.170, 208.296 370.176 C 213.684 366.183, 219.084 362.485, 220.296 361.959 C 221.508 361.433, 224.687 359.427, 227.359 357.501 C 230.106 355.522, 233.416 354, 234.974 354 C 236.490 354, 238.916 354.933, 240.365 356.073 L 243 358.145 243 378.573 C 243 396.064, 243.216 399, 244.500 399 C 245.567 399, 245.999 397.918, 245.998 395.250 C 245.997 393.188, 245.514 382.978, 244.927 372.563 C 244.197 359.646, 243.388 352.717, 242.381 350.769 C 241.568 349.198, 239.858 347.437, 238.579 346.854 C 236.888 346.084, 228.662 346.363, 208.377 347.880 C 193.045 349.027, 175.100 350.419, 168.500 350.974 C 161.900 351.529, 151.325 352.424, 145 352.961 C 138.675 353.499, 128.248 354.242, 121.829 354.612 L 110.158 355.284 91.597 340.892 C 81.388 332.976, 71.380 325.262, 69.356 323.750 C 67.333 322.238, 64.605 321, 63.294 321 C 61.982 321, 59.805 322.105, 58.455 323.455" stroke="none" fill="#dfdfdf" fill-rule="evenodd"/></svg>