<svg xmlns="http://www.w3.org/2000/svg" width="512" height="512" viewBox="0 0 512 512" version="1.1"><path d="M 244.500 5.458 C 240.100 8.453, 236.015 11.320, 235.422 11.830 C 234.830 12.340, 228.329 16.214, 220.977 20.438 C 205.442 29.365, 184.259 38.716, 169.926 42.974 C 164.397 44.616, 159.481 46.203, 159.002 46.498 C 156.593 47.987, 127.461 53.032, 112.531 54.546 C 95.777 56.245, 81.268 56.205, 53.947 54.385 C 42.592 53.628, 41.629 54.190, 40.572 62.184 C 40.186 65.108, 38.542 74.700, 36.920 83.500 C 23.959 153.799, 22.445 235.113, 33.121 287.500 C 43.978 340.777, 62.917 382.194, 93.020 418.490 C 98.065 424.574, 118.752 444.692, 126.008 450.571 C 152.383 471.945, 184.281 489.081, 222 502.142 C 234.358 506.421, 253.600 512, 256 512 C 258.400 512, 277.642 506.421, 290 502.142 C 327.719 489.081, 359.617 471.945, 385.992 450.571 C 393.248 444.692, 413.935 424.574, 418.980 418.490 C 457.635 371.882, 479.024 314.531, 484.988 241.500 C 486.278 225.704, 486.264 187.144, 484.959 165.650 C 483.622 143.617, 478.855 103.972, 475.080 83.500 C 473.458 74.700, 471.814 65.108, 471.428 62.184 C 470.371 54.190, 469.408 53.628, 458.053 54.385 C 430.732 56.205, 416.223 56.245, 399.469 54.546 C 384.539 53.032, 355.407 47.987, 352.998 46.498 C 352.519 46.203, 347.603 44.616, 342.074 42.974 C 327.761 38.722, 306.586 29.378, 290.945 20.413 C 283.550 16.174, 277.275 12.434, 277 12.103 C 276.725 11.771, 272.644 8.912, 267.930 5.750 C 256.771 -1.737, 255.103 -1.758, 244.500 5.458" stroke="none" fill="#dfdfdf" fill-rule="evenodd"/></svg>