<svg xmlns="http://www.w3.org/2000/svg" width="512" height="512" viewBox="0 0 512 512" version="1.1"><path d="M 79.285 44.968 C 77.380 46.130, 74.991 49.081, 73.421 52.214 C 71.964 55.121, 70.204 58.175, 69.509 59 C 68.814 59.825, 65.194 66.125, 61.465 73 C 57.736 79.875, 53.914 86.625, 52.970 88 C 52.027 89.375, 49.961 92.680, 48.378 95.344 C 46.795 98.009, 44.065 102.509, 42.311 105.344 C 26.851 130.339, 29.203 139, 51.450 139 L 61 139 61 256 L 61 373 51.450 373 C 29.203 373, 26.851 381.661, 42.311 406.656 C 44.065 409.491, 46.795 413.991, 48.378 416.656 C 49.961 419.320, 52.027 422.625, 52.970 424 C 53.914 425.375, 57.736 432.125, 61.465 439 C 65.194 445.875, 68.814 452.175, 69.509 453 C 70.204 453.825, 71.964 456.879, 73.421 459.786 C 79.634 472.183, 92.366 472.183, 98.579 459.786 C 100.036 456.879, 101.796 453.825, 102.491 453 C 103.186 452.175, 106.806 445.875, 110.535 439 C 114.264 432.125, 118.086 425.375, 119.030 424 C 119.973 422.625, 122.039 419.320, 123.622 416.656 C 125.205 413.991, 127.935 409.491, 129.689 406.656 C 145.149 381.661, 142.797 373, 120.550 373 L 111 373 111 256 L 111 139 120.550 139 C 142.797 139, 145.149 130.339, 129.689 105.344 C 127.935 102.509, 125.205 98.009, 123.622 95.344 C 122.039 92.680, 119.973 89.375, 119.030 88 C 118.086 86.625, 114.264 79.875, 110.535 73 C 106.806 66.125, 103.186 59.825, 102.491 59 C 101.796 58.175, 100.036 55.121, 98.579 52.214 C 95.555 46.181, 91.220 43.007, 86 43.007 C 84.075 43.007, 81.053 43.890, 79.285 44.968 M 282.500 53.932 C 281.400 54.399, 279.375 55.992, 278 57.471 L 275.500 60.161 275.500 90.561 L 275.500 120.962 278.769 124.231 L 282.038 127.500 312.500 127.500 L 342.962 127.500 346.231 124.231 L 349.500 120.962 349.500 90.500 L 349.500 60.038 346.232 56.769 L 342.964 53.500 313.732 53.291 C 297.654 53.176, 283.600 53.465, 282.500 53.932 M 157.500 138.932 C 156.400 139.399, 154.375 140.992, 153 142.471 L 150.500 145.161 150.500 213.061 L 150.500 280.962 153.769 284.231 L 157.038 287.500 187.500 287.500 L 217.962 287.500 221.231 284.231 L 224.500 280.962 224.500 213 L 224.500 145.038 221.232 141.769 L 217.964 138.500 188.732 138.291 C 172.654 138.176, 158.600 138.465, 157.500 138.932 M 242.500 138.944 C 241.400 139.404, 239.375 140.992, 238 142.471 L 235.500 145.161 235.500 213.061 L 235.500 280.962 238.769 284.231 L 242.038 287.500 315 287.500 L 387.962 287.500 391.231 284.231 L 394.500 280.962 394.500 213 L 394.500 145.038 391.231 141.769 L 387.962 138.500 316.231 138.303 C 276.779 138.195, 243.600 138.483, 242.500 138.944 M 412.500 138.932 C 411.400 139.399, 409.375 140.992, 408 142.471 L 405.500 145.161 405.500 213.061 L 405.500 280.962 408.769 284.231 L 412.038 287.500 442.500 287.500 L 472.962 287.500 476.231 284.231 L 479.500 280.962 479.500 213 L 479.500 145.038 476.232 141.769 L 472.964 138.500 443.732 138.291 C 427.654 138.176, 413.600 138.465, 412.500 138.932 M 242.500 298.932 C 241.400 299.399, 239.375 300.992, 238 302.471 L 235.500 305.161 235.500 373.061 L 235.500 440.962 238.769 444.231 L 242.038 447.500 272.500 447.500 L 302.962 447.500 306.231 444.231 L 309.500 440.962 309.500 373 L 309.500 305.038 306.232 301.769 L 302.964 298.500 273.732 298.291 C 257.654 298.176, 243.600 298.465, 242.500 298.932 M 327.500 298.932 C 326.400 299.399, 324.375 300.992, 323 302.471 L 320.500 305.161 320.500 373.061 L 320.500 440.962 323.769 444.231 L 327.038 447.500 357.500 447.500 L 387.962 447.500 391.231 444.231 L 394.500 440.962 394.500 373 L 394.500 305.038 391.232 301.769 L 387.964 298.500 358.732 298.291 C 342.654 298.176, 328.600 298.465, 327.500 298.932" stroke="none" fill="#dfdfdf" fill-rule="evenodd"/></svg>