<svg xmlns="http://www.w3.org/2000/svg" width="512" height="512" viewBox="0 0 512 512" version="1.1"><path d="M 230.360 35.027 C 203.467 38.312, 183.454 44.299, 158.500 56.525 C 109.634 80.468, 73.967 116.909, 53.131 164.182 C 37.696 199.200, 32.302 225.908, 33.273 262.500 C 34.204 297.537, 40.804 323.986, 56.982 357.500 C 83.652 412.748, 138.599 456.701, 201.445 473.056 C 237.701 482.491, 282.046 481.829, 318.500 471.309 C 367.605 457.139, 416.207 421.365, 443.882 379.023 C 456.538 359.658, 469.793 327.728, 475.440 303 C 481.306 277.312, 481.315 238.645, 475.461 210.816 C 470.315 186.351, 456.084 152.384, 442.440 132 C 415.773 92.159, 372.884 60.225, 323.849 43.699 C 297.333 34.763, 260.500 31.347, 230.360 35.027 M 202.220 169.308 C 172.949 198.627, 149 223.115, 149 223.726 C 149 224.777, 173.917 249.003, 174.992 248.997 C 175.272 248.996, 182.475 243.354, 191 236.461 C 207.928 222.773, 220.950 213.611, 225.961 211.864 C 231.988 209.763, 232.077 210.181, 232.706 243.607 C 233.681 295.407, 229.187 364.110, 224.573 367.939 C 222.072 370.015, 201.434 362.773, 180.500 352.474 C 162.805 343.768, 143.603 327.975, 132.689 313.150 C 130.136 309.682, 124.877 300.467, 121.002 292.672 C 110.694 271.936, 107.100 256.196, 105.436 224.500 C 104.635 209.242, 107.402 183.100, 112.422 158.500 C 113.550 152.974, 109.346 163.196, 104.497 177.770 C 98.725 195.120, 92.573 220.113, 90.411 235 C 88.444 248.544, 88.940 274.684, 91.447 289.664 C 94.258 306.459, 101.826 325.452, 111.505 340 C 134.472 374.523, 183.447 405.105, 235 417.116 C 247.913 420.124, 263.976 420.188, 277 417.282 C 318.040 408.125, 358.811 386.402, 385.499 359.472 C 404.132 340.671, 417.068 315.250, 421.617 288.498 C 424.297 272.736, 424.107 241.859, 421.237 226.819 C 417.137 205.333, 407.836 173.188, 401.613 159 C 399.683 154.600, 399.657 155.223, 401.419 163.685 C 406.299 187.131, 408.342 211.711, 407.013 230.987 C 405.647 250.801, 403.726 261.965, 399.502 274.651 C 386.621 313.334, 360.870 340.762, 321.339 357.906 C 310.528 362.594, 290.148 369.271, 288.535 368.652 C 285.992 367.676, 282.699 339.375, 280.918 303.196 C 279.728 279.017, 280.119 215.982, 281.478 212.750 C 282.463 210.407, 284.172 210.543, 289.783 213.410 C 296.272 216.726, 305.927 223.689, 322.931 237.314 C 333.851 246.064, 337.743 248.663, 338.931 247.996 C 339.794 247.512, 345.900 241.981, 352.500 235.705 L 364.500 224.294 353.331 212.397 C 337.296 195.317, 257.537 116, 256.398 116 C 255.871 116, 231.491 139.989, 202.220 169.308" stroke="none" fill="#dfdfdf" fill-rule="evenodd"/></svg>