<svg xmlns="http://www.w3.org/2000/svg" width="512" height="512" viewBox="0 0 512 512" version="1.1"><path d="M 295.571 1.571 C 294.707 2.436, 294 3.815, 294 4.637 C 294 5.459, 297.663 13.189, 302.139 21.816 C 306.615 30.442, 311.088 39.075, 312.077 41 L 313.877 44.500 310.582 47.840 L 307.287 51.179 302.023 48.512 C 291.950 43.407, 288.274 47.817, 294.246 57.841 L 297.713 63.662 295.404 68.081 C 292.355 73.915, 288.360 86.041, 287.051 93.434 C 284.920 105.466, 286.009 119.056, 290.117 131.704 C 292.201 138.118, 294.073 139.746, 297.949 138.516 C 300.992 137.550, 301.235 134.808, 298.981 126.857 C 291.616 100.869, 299.213 72.329, 318.303 54.275 C 359.950 14.887, 427.829 36.152, 439.409 92.215 C 448.975 138.526, 411.615 181.538, 364.277 178.714 C 356.830 178.269, 354.687 178.456, 353.492 179.651 C 349.885 183.258, 352.692 187.531, 359.320 188.525 L 363.616 189.170 367.384 213.335 C 371.930 242.493, 372.452 244.691, 375.022 245.507 C 378.144 246.498, 380.936 245.103, 381.672 242.183 C 382.044 240.708, 381.777 228.106, 381.078 214.180 C 380.379 200.254, 379.963 188.740, 380.153 188.593 C 380.344 188.446, 383.538 187.596, 387.251 186.703 C 390.963 185.810, 396.641 184.013, 399.867 182.710 L 405.732 180.341 411.278 185.670 C 417.195 191.357, 420.508 192.349, 423.519 189.338 C 425.267 187.590, 425.184 185.383, 423.058 177.118 C 422.438 174.708, 422.074 172.592, 422.250 172.417 C 422.425 172.241, 424.418 173.037, 426.677 174.184 C 431.600 176.684, 435.706 176.078, 436.500 172.735 C 436.792 171.506, 436.153 167.648, 435.080 164.162 L 433.130 157.824 436.756 152.662 C 438.751 149.823, 440.516 147.318, 440.679 147.095 C 440.842 146.873, 449.795 147.700, 460.573 148.932 C 471.352 150.165, 481.251 150.903, 482.570 150.572 C 486.619 149.556, 487.094 142.084, 483.212 140.475 C 482.270 140.085, 473.850 138.097, 464.500 136.058 C 451.774 133.283, 447.552 131.993, 447.706 130.926 C 447.819 130.142, 448.695 125.187, 449.651 119.915 L 451.391 110.331 456.134 108.646 C 464.210 105.778, 464.016 100.265, 455.729 97.174 C 451.275 95.512, 450.453 94.780, 449.774 91.873 C 449.341 90.018, 448.261 85.968, 447.373 82.874 L 445.758 77.247 449.879 72.034 C 454.367 66.357, 454.900 64.043, 452.318 61.460 C 450.676 59.818, 446.490 59.846, 440.495 61.539 C 438.918 61.984, 437.372 60.704, 433.269 55.556 L 428.049 49.006 431.120 43.753 C 435.690 35.937, 441.077 27.923, 443.159 25.841 C 445.415 23.585, 445.523 20.666, 443.429 18.571 C 440.396 15.539, 437.509 16.834, 425.013 26.829 L 412.725 36.659 407.470 33.813 C 387.116 22.788, 362.012 21.092, 340 29.253 L 333.500 31.663 317.431 15.832 C 301.086 -0.272, 298.865 -1.722, 295.571 1.571 M 365.571 48.571 C 364.707 49.436, 364 50.786, 364 51.571 C 364 52.357, 363.622 53, 363.161 53 C 362.699 53, 361.837 54.061, 361.246 55.358 C 360.490 57.019, 359.037 57.904, 356.336 58.348 C 354.226 58.695, 349.466 60.543, 345.757 62.455 L 339.014 65.930 333.954 64.296 C 329.070 62.719, 328.823 62.732, 326.875 64.680 C 325.027 66.528, 324.949 67.202, 325.942 72.681 C 326.980 78.404, 326.896 78.922, 324.011 84.582 C 322.352 87.837, 320.707 92.226, 320.356 94.336 C 319.907 97.032, 319.016 98.491, 317.358 99.246 C 316.061 99.837, 315 100.650, 315 101.052 C 315 101.454, 313.905 102.058, 312.567 102.394 C 311.228 102.730, 309.848 103.904, 309.499 105.002 C 308.530 108.055, 309.865 110.928, 312.567 111.606 C 313.905 111.942, 315 112.546, 315 112.948 C 315 113.350, 316.061 114.163, 317.358 114.754 C 319.019 115.510, 319.904 116.963, 320.348 119.664 C 320.695 121.774, 322.509 126.469, 324.380 130.097 C 327.777 136.686, 328.178 140.669, 325.754 143.737 C 324.424 145.420, 325.606 149.635, 327.625 150.410 C 328.528 150.756, 331.831 150.575, 334.966 150.006 C 340.347 149.030, 340.994 149.141, 346.582 151.989 C 349.837 153.648, 354.226 155.293, 356.336 155.644 C 359.032 156.093, 360.491 156.984, 361.246 158.642 C 361.837 159.939, 362.650 161, 363.052 161 C 363.454 161, 364.058 162.095, 364.394 163.433 C 365.532 167.970, 372.468 167.970, 373.606 163.433 C 373.942 162.095, 374.546 161, 374.948 161 C 375.350 161, 376.163 159.939, 376.754 158.642 C 377.510 156.981, 378.963 156.096, 381.664 155.652 C 383.774 155.305, 388.548 153.450, 392.273 151.530 C 399.017 148.054, 399.064 148.045, 403.565 149.574 C 411.579 152.294, 413.665 150.183, 412.006 141.034 C 411.030 135.653, 411.141 135.006, 413.989 129.418 C 415.648 126.163, 417.293 121.774, 417.644 119.664 C 418.093 116.968, 418.984 115.509, 420.642 114.754 C 421.939 114.163, 423 113.350, 423 112.948 C 423 112.546, 424.095 111.942, 425.433 111.606 C 426.772 111.270, 428.152 110.096, 428.501 108.998 C 429.470 105.945, 428.135 103.072, 425.433 102.394 C 424.095 102.058, 423 101.454, 423 101.052 C 423 100.650, 421.939 99.837, 420.642 99.246 C 418.981 98.490, 418.096 97.037, 417.652 94.336 C 417.305 92.226, 415.450 87.452, 413.530 83.727 C 410.054 76.983, 410.045 76.936, 411.574 72.435 C 412.417 69.949, 412.829 67.036, 412.487 65.960 C 411.793 63.771, 407.810 62.379, 405.807 63.625 C 405.088 64.072, 403.530 64.313, 402.346 64.160 C 401.161 64.007, 399.909 64.338, 399.565 64.894 C 399.187 65.507, 396.287 64.540, 392.220 62.443 C 388.524 60.538, 383.774 58.695, 381.664 58.348 C 378.963 57.904, 377.510 57.019, 376.754 55.358 C 376.163 54.061, 375.301 53, 374.839 53 C 374.378 53, 374 52.357, 374 51.571 C 374 49.557, 371.203 47, 369 47 C 367.979 47, 366.436 47.707, 365.571 48.571 M 258.739 151.959 C 256.670 152.361, 254.828 152.871, 254.644 153.094 C 253.839 154.074, 239 181.154, 239 181.645 C 239 181.945, 237.988 183.608, 236.750 185.340 C 235.512 187.072, 232.765 191.866, 230.644 195.994 C 228.523 200.122, 226.273 204.116, 225.644 204.870 C 225.015 205.623, 222.700 209.736, 220.500 214.011 C 213.915 226.806, 204.835 243.234, 201.992 247.500 C 200.525 249.700, 197.416 255.275, 195.084 259.890 C 191.123 267.723, 190.580 269.846, 186.895 291.890 C 184.724 304.875, 181.803 322.250, 180.404 330.500 C 179.005 338.750, 177.254 349.414, 176.512 354.199 C 172.236 381.771, 173.106 380.377, 148.728 398.723 C 137.603 407.096, 126.925 415.325, 125 417.009 C 123.075 418.694, 119.475 421.423, 117 423.074 C 114.525 424.725, 109.575 428.308, 106 431.035 C 102.425 433.763, 96.800 438.026, 93.500 440.508 C 90.200 442.991, 82.361 448.954, 76.080 453.761 C 69.798 458.567, 61.473 464.840, 57.580 467.700 C 53.686 470.561, 50.045 473.291, 49.489 473.767 C 48.932 474.243, 40.276 480.800, 30.252 488.338 C 11.820 502.199, 9.981 504.214, 11.476 508.926 C 12.872 513.323, 17.782 512.615, 25 506.976 C 26.925 505.472, 32.775 501.346, 38 497.806 C 50.904 489.063, 58.400 483.806, 59 483.079 C 59.275 482.746, 62.192 480.679, 65.483 478.486 C 68.774 476.294, 71.924 474.131, 72.483 473.680 C 73.042 473.229, 78 469.773, 83.500 466 C 89 462.227, 93.950 458.771, 94.500 458.320 C 95.050 457.869, 99.100 455.052, 103.500 452.060 C 107.900 449.067, 113.361 445.242, 115.635 443.560 C 117.910 441.877, 120.610 439.923, 121.635 439.218 C 122.661 438.512, 128 434.814, 133.500 431 C 139 427.186, 144.343 423.488, 145.373 422.782 C 146.402 422.077, 147.752 421.044, 148.373 420.486 C 151.731 417.464, 157.914 413, 158.741 413 C 159.265 413, 160.775 412.055, 162.097 410.900 C 163.419 409.745, 167.711 406.575, 171.636 403.854 C 179.303 398.539, 179.442 398.319, 186.012 381 C 187.577 376.875, 191.197 367.875, 194.058 361 C 196.918 354.125, 200.721 344.900, 202.507 340.500 C 206.975 329.497, 212.180 316.935, 215.972 308 C 217.723 303.875, 220.502 296.900, 222.146 292.500 C 223.791 288.100, 225.975 282.700, 227 280.500 C 228.026 278.300, 229.633 274.357, 230.572 271.738 C 231.971 267.840, 233.149 266.481, 237.073 264.238 C 246.125 259.065, 256.507 252.572, 261.500 248.961 C 264.250 246.972, 268.750 244.064, 271.500 242.500 C 274.250 240.936, 280.775 236.886, 286 233.501 C 291.225 230.116, 301.800 223.369, 309.500 218.508 C 317.200 213.648, 323.849 209.182, 324.275 208.585 C 325.358 207.066, 324.119 191.691, 322.339 184.580 C 320.565 177.494, 316.119 168.631, 312.266 164.500 C 308.017 159.945, 299.790 155.057, 292.787 152.927 C 287.970 151.462, 283.694 151.040, 274.500 151.123 C 267.900 151.182, 260.808 151.558, 258.739 151.959" stroke="none" fill="#dfdfdf" fill-rule="evenodd"/></svg>