<svg xmlns="http://www.w3.org/2000/svg" width="512" height="512" viewBox="0 0 512 512" version="1.1"><path d="M 459 17.472 C 457.075 18.226, 452.125 19.806, 448 20.983 C 443.875 22.161, 438.700 23.732, 436.500 24.474 C 434.300 25.216, 429.125 26.795, 425 27.982 C 420.875 29.170, 416.600 30.541, 415.500 31.029 C 414.400 31.517, 411.475 32.423, 409 33.041 C 406.525 33.660, 400.450 35.443, 395.500 37.004 C 390.550 38.565, 381.325 41.412, 375 43.330 C 368.675 45.248, 358.100 48.487, 351.500 50.529 C 344.900 52.570, 337.250 54.908, 334.500 55.724 C 331.750 56.539, 326.911 58.060, 323.746 59.103 C 320.581 60.147, 317.431 61.004, 316.746 61.010 C 313.502 61.035, 305.178 66.009, 303.166 69.124 C 301.967 70.981, 298.294 76.550, 295.004 81.500 C 291.714 86.450, 287.780 92.480, 286.261 94.900 C 284.743 97.321, 282.133 101.146, 280.462 103.400 C 278.791 105.655, 275.663 110.425, 273.511 114 C 271.359 117.575, 269.080 120.950, 268.445 121.500 C 267.811 122.050, 265.566 125.425, 263.457 129 C 261.348 132.575, 259.227 135.771, 258.743 136.101 C 258.259 136.432, 255.757 140.076, 253.182 144.199 C 246.541 154.833, 240.722 163.778, 237.049 169 C 233.347 174.262, 227.198 183.634, 221.356 192.916 C 219.077 196.537, 216.566 200.175, 215.777 201 C 214.987 201.825, 212.605 205.425, 210.482 209 C 208.359 212.575, 206.227 215.771, 205.743 216.101 C 205.259 216.432, 202.757 220.076, 200.182 224.199 C 194.262 233.678, 188.021 243.215, 183.951 249 C 180.590 253.779, 175.147 262.125, 168.356 272.916 C 166.077 276.537, 163.566 280.175, 162.777 281 C 161.987 281.825, 159.605 285.425, 157.482 289 C 155.359 292.575, 153.205 295.784, 152.695 296.131 C 152.185 296.478, 150.544 298.856, 149.049 301.415 L 146.332 306.069 140.888 300.784 C 131.052 291.235, 103.684 266.526, 101.570 265.285 C 94.843 261.339, 86 266.606, 86 274.560 C 86 276.023, 90.558 287.633, 96.128 300.360 C 112.761 338.359, 120.214 355.438, 120.655 356.564 C 120.884 357.149, 118.018 360.816, 114.286 364.712 C 110.554 368.608, 104.125 375.515, 100 380.061 C 95.875 384.606, 90.700 390.203, 88.500 392.498 C 86.300 394.793, 81.125 400.380, 77 404.912 C 72.875 409.445, 67.700 415.058, 65.500 417.385 C 63.300 419.712, 58.837 424.514, 55.582 428.058 C 52.328 431.601, 44.903 439.593, 39.082 445.818 C 27.300 458.419, 26.071 460.185, 26.071 464.500 C 26.071 468.770, 27.583 470.893, 35.500 477.733 C 39.350 481.060, 45.993 487.193, 50.262 491.362 C 59.475 500.360, 61.166 501.379, 65.519 500.562 C 68.082 500.082, 70.800 497.751, 77.580 490.221 C 86.628 480.171, 102.286 463.133, 114.522 450.024 C 118.384 445.886, 123.784 440.016, 126.522 436.979 C 131.868 431.051, 150.318 411.045, 158.500 402.306 L 163.500 396.965 196 408.062 C 243.726 424.358, 246.738 425.272, 250.446 424.576 C 256.532 423.434, 260.346 416.663, 258.040 411.096 C 257.387 409.519, 252.280 404.016, 246.691 398.865 C 241.102 393.714, 232.698 385.893, 228.015 381.484 C 223.332 377.076, 217.962 372.204, 216.081 370.657 L 212.663 367.845 217.081 363.965 C 219.512 361.831, 221.780 360.066, 222.123 360.043 C 222.650 360.007, 231.178 353.356, 238.568 347.218 C 239.705 346.273, 243.305 343.483, 246.568 341.017 C 249.830 338.552, 256.157 333.602, 260.626 330.017 C 265.096 326.433, 270.848 321.925, 273.409 320 C 278.838 315.919, 281.286 313.978, 289.673 307.111 C 293.068 304.330, 299.593 299.220, 304.173 295.755 C 308.753 292.289, 313.400 288.706, 314.500 287.793 C 317.764 285.082, 329.425 275.900, 337.096 270 C 341.030 266.975, 344.986 263.819, 345.888 262.986 C 346.789 262.154, 349.096 260.360, 351.014 259.001 C 352.931 257.641, 355.175 255.987, 356 255.326 C 369.533 244.473, 376.605 238.877, 380.421 236 C 382.975 234.075, 386.287 231.518, 387.782 230.319 C 394.346 225.052, 404.494 217.078, 411.096 212 C 415.030 208.975, 418.986 205.825, 419.889 205 C 420.791 204.175, 424.959 200.926, 429.151 197.779 C 439.307 190.157, 441.622 187.221, 442.966 180.260 C 443.577 177.092, 444.735 171.463, 445.539 167.750 C 446.342 164.037, 447.707 157.738, 448.571 153.750 C 449.435 149.762, 450.991 142.900, 452.029 138.500 C 453.066 134.100, 454.587 127.350, 455.408 123.500 C 456.229 119.650, 458.296 110.200, 460 102.500 C 461.704 94.800, 463.729 85.575, 464.500 82 C 467.153 69.695, 472.090 47.488, 473.597 41.082 C 474.427 37.553, 475.370 31.843, 475.692 28.394 C 476.253 22.385, 476.150 21.996, 473.216 19.062 C 469.751 15.597, 465.118 15.079, 459 17.472" stroke="none" fill="#dfdfdf" fill-rule="evenodd"/></svg>