<svg xmlns="http://www.w3.org/2000/svg" width="512" height="512" viewBox="0 0 512 512" version="1.1"><path d="M 239 96.578 C 237.075 96.799, 230.550 97.483, 224.500 98.096 C 131.270 107.553, 63.198 152.178, 27.525 227.227 C 21.206 240.519, 20.605 244.696, 24.455 248.545 C 28.723 252.814, 32.447 251.407, 46 240.408 C 55.451 232.738, 62.259 227.645, 68.603 223.500 C 71.970 221.300, 76.699 218.195, 79.113 216.600 C 81.526 215.006, 86.532 211.731, 90.238 209.323 C 190.634 144.102, 321.366 144.102, 421.762 209.323 C 425.468 211.731, 430.474 215.006, 432.887 216.600 C 435.301 218.195, 440.030 221.300, 443.397 223.500 C 449.741 227.645, 456.549 232.738, 466 240.408 C 498.300 266.621, 496.612 237.216, 463.151 190.766 C 420.918 132.138, 348.266 98.275, 261 96.542 C 250.825 96.340, 240.925 96.356, 239 96.578 M 239.500 185.961 C 230.629 187.864, 210.265 197.144, 208.425 200.122 C 208.099 200.649, 206.164 202.134, 204.126 203.420 C 165.519 227.792, 165.607 310.561, 204.261 331.133 C 205.492 331.788, 208.075 333.543, 210 335.033 C 246.356 363.166, 307.407 347.685, 329.214 304.803 C 350.587 262.774, 329.442 204.831, 287.553 190.642 C 285.324 189.887, 281.250 188.474, 278.500 187.501 C 272.828 185.495, 246.514 184.456, 239.500 185.961 M 215.053 214.052 C 195.832 228.495, 184.547 258.071, 190.081 279.500 C 190.649 281.700, 191.559 285.272, 192.104 287.438 C 206.095 343.062, 289.806 349.889, 315.482 297.500 C 330.306 267.254, 320.175 226.066, 294.400 211.782 C 292.022 210.464, 292.721 211.517, 297.400 216.297 C 333.244 252.925, 307.447 313.486, 256 313.486 C 204.527 313.486, 178.757 252.924, 214.632 216.266 C 218.004 212.820, 220.692 210, 220.605 210 C 220.518 210, 218.019 211.823, 215.053 214.052 M 26.046 292.800 C 22.125 296.722, 22.200 298.055, 26.964 309.039 C 55.757 375.424, 125.900 413.807, 238.250 424.656 C 255.013 426.275, 256.987 426.275, 273.750 424.656 C 387.272 413.694, 458.116 374.335, 486.102 306.679 C 493.175 289.578, 484.193 285.408, 465.800 297.253 C 325.272 387.753, 216.067 395.420, 91 323.567 C 86.875 321.197, 79.225 316.933, 74 314.092 C 68.775 311.251, 60 306.044, 54.500 302.522 C 32.417 288.380, 30.963 287.883, 26.046 292.800" stroke="none" fill="#dfdfdf" fill-rule="evenodd"/></svg>