<svg xmlns="http://www.w3.org/2000/svg" width="512" height="512" viewBox="0 0 512 512" version="1.1"><path d="M 183 5.568 C 164.875 7.484, 139.364 12.243, 134.928 14.537 C 130.046 17.062, 129.634 19.892, 130.367 45.822 C 132.456 119.662, 125.521 178.076, 111.885 201.500 L 107.229 209.500 106.580 225 C 105.094 260.504, 97.625 280.716, 77.999 302.337 C 70.390 310.720, 67.301 317.138, 59.078 341.647 C 50.138 368.293, 47.497 399.130, 53.303 409.073 C 56.363 414.314, 57.412 414.849, 87.500 426.522 C 91.350 428.016, 99.225 431.156, 105 433.500 C 110.775 435.844, 118.650 438.984, 122.500 440.478 C 126.350 441.972, 132.650 444.468, 136.500 446.025 C 143.412 448.821, 153.286 452.401, 164 455.997 C 167.025 457.012, 173.325 459.280, 178 461.037 C 200.327 469.427, 235.324 481.364, 251 485.937 C 255.125 487.140, 260.300 488.748, 262.500 489.511 C 277.306 494.642, 319.496 504.826, 344 509.184 C 361.210 512.245, 415.240 512.636, 421 509.741 C 433.022 503.700, 450.295 486.473, 455.429 475.404 C 457.445 471.057, 459.979 465.854, 461.060 463.842 C 480.386 427.862, 458.457 380.877, 415 365.155 C 411.975 364.061, 406.350 361.949, 402.500 360.463 C 398.650 358.976, 392.125 356.541, 388 355.052 C 371.355 349.041, 338.058 334.769, 318 325.048 C 298.125 315.415, 295.879 313.768, 296.455 309.242 C 296.716 307.184, 297.190 301, 297.508 295.500 C 298.658 275.605, 306.122 226.848, 308.642 222.770 C 308.980 222.223, 310.059 218.788, 311.039 215.137 C 318.371 187.813, 328.957 168.610, 346.760 150.337 C 358.290 138.501, 357.751 139.625, 358.467 125.938 C 359.932 97.963, 365.676 71.971, 372.045 64.500 C 378.801 56.575, 376.360 46.115, 366.799 42.017 C 363.884 40.768, 358.125 37.809, 354 35.442 C 346.870 31.350, 342.602 29.418, 326.500 22.994 C 311.356 16.952, 290.886 11.046, 279.500 9.435 C 276.750 9.046, 273.449 8.335, 272.164 7.856 C 262.908 4.402, 207.492 2.981, 183 5.568" stroke="none" fill="#dfdfdf" fill-rule="evenodd"/></svg>